<?xml version="1.0" encoding="UTF-8"?>
<svg xmlns="http://www.w3.org/2000/svg" version="1.1" width="256px" height="256px" style="shape-rendering:geometricPrecision; text-rendering:geometricPrecision; image-rendering:optimizeQuality; fill-rule:evenodd; clip-rule:evenodd" xmlns:xlink="http://www.w3.org/1999/xlink">
    <defs>
        <linearGradient id="linear-gradient" x1="-100%" y1="100%" x2="200%" y2="0" >
            <stop offset="0" stop-color="#fafafa">
                <animate attributeName="offset" values="0;0.9" dur="2s" repeatCount="indefinite"  />
            </stop>
            <stop offset="0" stop-color="rgba(188, 188, 188, 1)">
                <animate attributeName="offset" values="0;0.8" dur="2s" repeatCount="indefinite"  />
            </stop>
            <stop offset="0.1" stop-color="rgba(188, 188, 188, 1)">
                <animate attributeName="offset" values="0.1;1" dur="2s" repeatCount="indefinite"  />
            </stop>
            <stop offset="0.1" stop-color="#fafafa">
                <animate attributeName="offset" values="0.1;1" dur="2s" repeatCount="indefinite"  />
            </stop>
        </linearGradient>
    </defs>
    <g><path style="opacity:1" fill="#bdbdbd" d="M 119.5,51.5 C 123.35,51.7007 124.35,53.5341 122.5,57C 117.722,57.0734 116.722,55.2401 119.5,51.5 Z"/></g>
    <g><path style="opacity:1" fill="#696969" d="M 133.5,51.5 C 138.001,52.765 138.334,54.4317 134.5,56.5C 132.296,55.218 131.962,53.5514 133.5,51.5 Z"/></g>
    <g><path style="opacity:1" fill="#cccccc" d="M 145.5,52.5 C 146.167,52.5 146.833,52.5 147.5,52.5C 148.234,53.7079 148.567,55.0413 148.5,56.5C 147.167,56.5 145.833,56.5 144.5,56.5C 144.433,55.0413 144.766,53.7079 145.5,52.5 Z"/></g>
    <g><path style="opacity:0.404" fill="#424242" d="M 94.5,55.5 C 95.2506,54.4265 96.2506,54.2599 97.5,55C 96.6477,56.7284 95.6477,56.895 94.5,55.5 Z"/></g>
    <g><path style="opacity:1" fill="#878787" d="M 106.5,52.5 C 108.167,52.5 109.833,52.5 111.5,52.5C 111.509,54.3084 111.009,55.9751 110,57.5C 109.374,55.0087 108.541,55.0087 107.5,57.5C 104.14,56.2095 103.806,54.5428 106.5,52.5 Z"/></g>
    <g><path style="opacity:1" fill="#787878" d="M 148.5,56.5 C 148.567,55.0413 148.234,53.7079 147.5,52.5C 148.735,51.9507 149.735,52.6173 150.5,54.5C 150.145,55.5223 149.478,56.189 148.5,56.5 Z"/></g>
    <g><path style="opacity:1" fill="#7a7a7a" d="M 145.5,52.5 C 144.766,53.7079 144.433,55.0413 144.5,56.5C 145.833,56.5 147.167,56.5 148.5,56.5C 147.081,57.4511 145.415,57.7845 143.5,57.5C 143.077,55.2188 143.744,53.5521 145.5,52.5 Z"/></g>
    <g><path style="opacity:1" fill="#5d5d5d" d="M 156.5,53.5 C 162.262,52.7165 163.429,54.3832 160,58.5C 157.444,57.7809 156.277,56.1142 156.5,53.5 Z"/></g>
    <g fill="url(#linear-gradient)"><path style="opacity:1" d="M 155.5,66.5 C 156.694,67.2719 157.694,68.2719 158.5,69.5C 158.389,70.1174 158.056,70.6174 157.5,71C 162.375,74.4297 166.375,77.9297 169.5,81.5C 169.755,83.9674 170.755,85.9674 172.5,87.5C 174.323,90.1633 175.323,93.1633 175.5,96.5C 174.93,102.318 174.93,108.318 175.5,114.5C 174.523,117.287 174.19,120.287 174.5,123.5C 175.552,123.351 176.552,123.517 177.5,124C 178.833,124.667 178.833,125.333 177.5,126C 178.833,126.667 179.833,127.667 180.5,129C 179.21,131.342 177.21,133.676 174.5,136C 175.416,136.278 176.082,136.778 176.5,137.5C 176.5,138.5 176.5,139.5 176.5,140.5C 173.874,143.013 174.207,144.68 177.5,145.5C 178.11,147.434 179.11,149.101 180.5,150.5C 180.5,153.833 180.5,157.167 180.5,160.5C 178.328,162.843 176.661,165.51 175.5,168.5C 173.713,170.39 171.713,172.056 169.5,173.5C 168.167,174.167 166.833,174.833 165.5,175.5C 162.264,175.478 158.93,175.811 155.5,176.5C 154.5,176.167 153.833,175.5 153.5,174.5C 152.895,172.974 151.729,171.974 150,171.5C 150.207,173.751 150.373,176.085 150.5,178.5C 150.5,179.167 150.167,179.5 149.5,179.5C 149.153,183.528 147.153,186.528 143.5,188.5C 142.167,188.5 140.833,188.5 139.5,188.5C 136.266,189.127 133.099,189.127 130,188.5C 127.639,189.551 125.306,190.551 123,191.5C 121.175,191.057 119.342,190.723 117.5,190.5C 115.528,188.681 113.195,187.681 110.5,187.5C 110.784,184.143 109.451,181.809 106.5,180.5C 106.5,179.833 106.167,179.5 105.5,179.5C 105.784,177.585 105.451,175.919 104.5,174.5C 104.5,174.167 104.5,173.833 104.5,173.5C 106.028,173.483 106.528,172.816 106,171.5C 103.625,172.129 101.459,173.129 99.5,174.5C 97.8974,175.677 96.564,175.511 95.5,174C 93.5273,173.505 91.5273,173.338 89.5,173.5C 89.8799,169.843 88.5466,168.843 85.5,170.5C 84.1331,169.775 82.7997,169.108 81.5,168.5C 80.609,167.89 79.609,167.557 78.5,167.5C 78.5,165.5 77.5,164.5 75.5,164.5C 75.5,164.167 75.5,163.833 75.5,163.5C 75.2671,160.458 74.2671,157.792 72.5,155.5C 74.786,151.923 76.786,148.257 78.5,144.5C 78.5,144.167 78.5,143.833 78.5,143.5C 79.9245,145.031 80.5912,144.698 80.5,142.5C 80.1924,140.076 80.5258,137.743 81.5,135.5C 82.1818,136.243 82.8485,136.909 83.5,137.5C 83.2627,138.791 83.596,139.791 84.5,140.5C 86.99,144.138 89.49,147.805 92,151.5C 92.4696,152.577 92.3029,153.577 91.5,154.5C 91.5978,155.882 91.5978,157.382 91.5,159C 95.7599,159.034 99.0932,157.2 101.5,153.5C 103.017,153.489 104.184,152.823 105,151.5C 105.464,152.094 105.631,152.761 105.5,153.5C 104.115,154.302 104.282,154.969 106,155.5C 106.765,155.43 107.265,155.097 107.5,154.5C 109.5,153.167 111.167,151.5 112.5,149.5C 113.5,149.5 114.5,149.5 115.5,149.5C 117.17,152.105 117.504,152.105 116.5,149.5C 116.5,148.833 116.167,148.5 115.5,148.5C 114.773,146.046 113.773,143.713 112.5,141.5C 113.168,136.839 111.168,134.839 106.5,135.5C 104.686,132.734 102.186,132.067 99,133.5C 97.2785,133.389 97.1118,132.889 98.5,132C 93.9026,130.621 89.2359,130.621 84.5,132C 83.1667,132.667 83.1667,133.333 84.5,134C 83.5,134.167 82.5,134.333 81.5,134.5C 79.3812,134.442 78.0478,133.775 77.5,132.5C 76.776,130.782 76.1094,128.948 75.5,127C 77.5689,126.676 77.9023,125.842 76.5,124.5C 77.376,123.749 78.376,123.249 79.5,123C 79.1459,121.374 79.1459,119.541 79.5,117.5C 79.5,116.5 79.5,115.5 79.5,114.5C 79.1881,104.861 80.5214,95.5279 83.5,86.5C 85.0682,84.1891 85.9016,81.5224 86,78.5C 87.045,77.6266 87.8783,76.6266 88.5,75.5C 92.8092,74.5148 96.8092,72.6815 100.5,70C 100.201,68.927 100.201,67.7603 100.5,66.5C 118.756,57.1764 137.089,57.1764 155.5,66.5 Z M 171.5,139.5 C 169.262,144.293 166.262,148.626 162.5,152.5C 162.942,153.739 163.609,154.739 164.5,155.5C 163.811,156.774 162.977,156.774 162,155.5C 161.722,156.416 161.222,157.082 160.5,157.5C 159.833,157.5 159.5,157.167 159.5,156.5C 156.185,154.192 152.851,151.859 149.5,149.5C 149.405,151.215 149.072,152.881 148.5,154.5C 147.833,154.167 147.167,153.833 146.5,153.5C 145.833,152.167 144.833,151.167 143.5,150.5C 143.167,149.833 142.833,149.167 142.5,148.5C 141.833,147.833 141.167,147.167 140.5,146.5C 141.529,144.483 142.529,142.483 143.5,140.5C 145.525,138.804 147.525,137.137 149.5,135.5C 152.939,135.212 156.272,134.546 159.5,133.5C 163.19,132.824 166.857,133.324 170.5,135C 170.519,136.521 170.852,138.021 171.5,139.5 Z M 136.5,161.5 C 134.17,162.971 131.836,163.304 129.5,162.5C 128.708,160.255 127.375,159.922 125.5,161.5C 125.167,162.167 124.833,162.833 124.5,163.5C 123.833,163.833 123.167,164.167 122.5,164.5C 121.791,163.596 120.791,163.263 119.5,163.5C 119.5,162.5 119.5,161.5 119.5,160.5C 125.582,152.294 131.249,152.627 136.5,161.5 Z"/></g>
    <g><path style="opacity:1" fill="#727272" d="M 171.5,65.5 C 175.976,66.7226 176.309,68.3893 172.5,70.5C 170.296,69.218 169.962,67.5514 171.5,65.5 Z"/></g>
    <g><path style="opacity:1" fill="#abaaab" d="M 81.5,65.5 C 82.9217,65.7086 84.255,66.2086 85.5,67C 84.1667,67.6667 84.1667,68.3333 85.5,69C 82.796,72.6349 80.796,72.3015 79.5,68C 80.0556,66.9889 80.7222,66.1556 81.5,65.5 Z"/></g>
    <g><path style="opacity:1" fill="#737373" d="M 155.5,66.5 C 158.665,65.9635 161.331,66.7969 163.5,69C 162.244,69.4169 161.577,70.2502 161.5,71.5C 160.5,70.8333 159.5,70.1667 158.5,69.5C 157.694,68.2719 156.694,67.2719 155.5,66.5 Z"/></g>
    <g><path style="opacity:1" fill="#8e8d8e" d="M 97.5,67.5 C 97.106,69.7099 95.7727,71.0432 93.5,71.5C 93.4226,70.2502 92.756,69.4169 91.5,69C 93.01,68.1502 94.51,67.3169 96,66.5C 96.7648,66.5699 97.2648,66.9033 97.5,67.5 Z"/></g>
    <g><path style="opacity:1" fill="#747474" d="M 70.5,65.5 C 74.2668,67.326 74.4335,69.326 71,71.5C 67.897,69.888 67.7304,67.888 70.5,65.5 Z"/></g>
    <g><path style="opacity:1" fill="#868686" d="M 183.5,65.5 C 187.109,67.424 187.275,69.424 184,71.5C 180.924,69.6994 180.758,67.6994 183.5,65.5 Z"/></g>
    <g><path style="opacity:1" fill="#c8c8c8" d="M 100.5,66.5 C 100.201,67.7603 100.201,68.927 100.5,70C 96.8092,72.6815 92.8092,74.5148 88.5,75.5C 89.9448,73.9373 91.6115,72.604 93.5,71.5C 95.7727,71.0432 97.106,69.7099 97.5,67.5C 98.391,66.8902 99.391,66.5569 100.5,66.5 Z"/></g>
    <g><path style="opacity:1" fill="#acacac" d="M 158.5,69.5 C 159.5,70.1667 160.5,70.8333 161.5,71.5C 164.473,73.1468 167.14,75.1468 169.5,77.5C 170.354,79.035 170.354,80.3684 169.5,81.5C 166.375,77.9297 162.375,74.4297 157.5,71C 158.056,70.6174 158.389,70.1174 158.5,69.5 Z"/></g>
    <g><path style="opacity:1" fill="#a4a4a4" d="M 88.5,75.5 C 87.8783,76.6266 87.045,77.6266 86,78.5C 85.9016,81.5224 85.0682,84.1891 83.5,86.5C 83.6068,84.6214 83.1068,84.2881 82,85.5C 79.9451,84.328 79.2784,82.6614 80,80.5C 82.9948,79.8843 85.3281,77.8843 87,74.5C 87.3826,75.056 87.8826,75.3893 88.5,75.5 Z"/></g>
    <g><path style="opacity:1" fill="#5c5c5c" d="M 194.5,79.5 C 197.701,80.8395 198.035,82.5061 195.5,84.5C 194.548,82.9547 194.215,81.288 194.5,79.5 Z"/></g>
    <g><path style="opacity:1" fill="#494849" d="M 58.5,80.5 C 60.9701,81.3603 61.1368,82.6936 59,84.5C 57.4894,83.436 57.3228,82.1026 58.5,80.5 Z"/></g>
    <g><path style="opacity:1" fill="#777777" d="M 69.5,79.5 C 70.5,79.5 71.5,79.5 72.5,79.5C 72.9492,81.9775 72.2825,83.9775 70.5,85.5C 67.025,83.9158 66.6917,81.9158 69.5,79.5 Z"/></g>
    <g><path style="opacity:1" fill="#818181" d="M 169.5,77.5 C 170.794,78.2899 171.961,79.2899 173,80.5C 174.367,79.4757 175.2,79.9757 175.5,82C 174.259,83.7309 173.259,85.5642 172.5,87.5C 170.755,85.9674 169.755,83.9674 169.5,81.5C 170.354,80.3684 170.354,79.035 169.5,77.5 Z"/></g>
    <g><path style="opacity:1" fill="#7a7a7a" d="M 182.5,79.5 C 185.998,79.4784 187.331,80.9784 186.5,84C 185.207,84.49 183.873,84.6567 182.5,84.5C 182.5,82.8333 182.5,81.1667 182.5,79.5 Z"/></g>
    <g><path style="opacity:1" fill="#9c9c9c" d="M 83.5,86.5 C 80.5214,95.5279 79.1881,104.861 79.5,114.5C 78.6322,108.525 78.2989,102.525 78.5,96.5C 79.1393,93.5252 79.6393,90.5252 80,87.5C 81.1448,87.3809 82.3115,87.0476 83.5,86.5 Z"/></g>
    <g><path style="opacity:1" fill="#848484" d="M 57.5,93.5 C 58.5,93.5 59.5,93.5 60.5,93.5C 60.23,98.3092 58.5633,99.1425 55.5,96C 56.3805,95.2917 57.0472,94.4584 57.5,93.5 Z"/></g>
    <g><path style="opacity:1" fill="#8a8a8a" d="M 68.5,92.5 C 70.9477,92.0847 72.2811,93.0847 72.5,95.5C 70.8333,99.5 69.1667,99.5 67.5,95.5C 67.685,94.4163 68.0183,93.4163 68.5,92.5 Z"/></g>
    <g><path style="opacity:1" fill="#8c8c8c" d="M 182.5,92.5 C 187.159,92.0146 188.492,93.848 186.5,98C 185.216,98.6838 184.049,98.5171 183,97.5C 182.506,95.8659 182.34,94.1992 182.5,92.5 Z"/></g>
    <g><path style="opacity:1" fill="#656565" d="M 194.5,93.5 C 198.536,93.5724 199.37,95.2391 197,98.5C 195.108,97.3826 194.275,95.7159 194.5,93.5 Z"/></g>
    <g><path style="opacity:1" fill="#6d6d6d" d="M 172.5,87.5 C 174.124,87.3601 175.29,88.0267 176,89.5C 176.499,93.8206 176.666,98.1539 176.5,102.5C 175.539,100.735 175.205,98.7354 175.5,96.5C 175.323,93.1633 174.323,90.1633 172.5,87.5 Z"/></g>
    <g><path style="opacity:1" fill="#919191" d="M 195.5,105.5 C 200.131,106.52 200.631,108.52 197,111.5C 194.327,110.142 193.827,108.142 195.5,105.5 Z"/></g>
    <g><path style="opacity:1" fill="#727272" d="M 57.5,106.5 C 58.5,106.5 59.5,106.5 60.5,106.5C 60.5,107.833 60.5,109.167 60.5,110.5C 57.0464,110.733 56.0464,109.4 57.5,106.5 Z"/></g>
    <g><path style="opacity:0.435" fill="#404040" d="M 46.5,107.5 C 47.525,107.897 47.6917,108.563 47,109.5C 46.5357,108.906 46.369,108.239 46.5,107.5 Z"/></g>
    <g><path style="opacity:1" fill="#a3a3a3" d="M 175.5,96.5 C 175.205,98.7354 175.539,100.735 176.5,102.5C 177.29,106.625 176.957,110.625 175.5,114.5C 174.93,108.318 174.93,102.318 175.5,96.5 Z"/></g>
    <g><path style="opacity:1" fill="#afaeaf" d="M 182.5,106.5 C 187.268,106.631 188.268,108.465 185.5,112C 181.83,111.836 180.83,110.003 182.5,106.5 Z"/></g>
    <g><path style="opacity:1" fill="#4b4b4b" d="M 206.5,106.5 C 208.908,107.315 209.741,108.981 209,111.5C 207.117,110.347 206.284,108.681 206.5,106.5 Z"/></g>
    <g><path style="opacity:1" fill="#b4b4b4" d="M 69.5,106.5 C 73.35,106.701 74.35,108.534 72.5,112C 69.7753,112.803 68.1086,111.803 67.5,109C 68.0556,107.989 68.7222,107.156 69.5,106.5 Z"/></g>
    <g><path style="opacity:1" fill="#9b9b9b" d="M 60.5,122.5 C 59.5,122.5 58.5,122.5 57.5,122.5C 57.5,121.167 57.5,119.833 57.5,118.5C 61.2407,117.258 62.2407,118.591 60.5,122.5 Z"/></g>
    <g><path style="opacity:1" fill="#5f5f5f" d="M 46.5,117.5 C 48.4759,118.427 48.8092,119.76 47.5,121.5C 46.5713,120.311 46.238,118.978 46.5,117.5 Z"/></g>
    <g><path style="opacity:1" fill="#d1d1d1" d="M 71.5,122.5 C 70.209,122.737 69.209,122.404 68.5,121.5C 68.9382,121.565 69.2716,121.399 69.5,121C 68.5842,120.722 67.9175,120.222 67.5,119.5C 70.5367,117.814 71.87,118.814 71.5,122.5 Z"/></g>
    <g><path style="opacity:1" fill="#828282" d="M 71.5,122.5 C 71.87,118.814 70.5367,117.814 67.5,119.5C 68.6354,117.787 70.302,117.12 72.5,117.5C 72.7845,119.415 72.4511,121.081 71.5,122.5 Z"/></g>
    <g><path style="opacity:1" fill="#999999" d="M 182.5,117.5 C 185.022,117.128 187.022,117.961 188.5,120C 184.603,123.756 182.603,122.923 182.5,117.5 Z"/></g>
    <g><path style="opacity:1" fill="#6e6e6e" d="M 67.5,119.5 C 67.9175,120.222 68.5842,120.722 69.5,121C 69.2716,121.399 68.9382,121.565 68.5,121.5C 66.5759,121.289 66.2426,120.623 67.5,119.5 Z"/></g>
    <g><path style="opacity:1" fill="#6b6b6b" d="M 206.5,117.5 C 212.189,118.507 212.689,120.507 208,123.5C 205.521,121.912 205.021,119.912 206.5,117.5 Z"/></g>
    <g><path style="opacity:1" fill="#acacac" d="M 194.5,117.5 C 196.308,117.491 197.975,117.991 199.5,119C 200.727,120.587 200.394,121.921 198.5,123C 193.728,123.81 192.395,121.977 194.5,117.5 Z"/></g>
    <g><path style="opacity:1" fill="#595959" d="M 57.5,118.5 C 57.5,119.833 57.5,121.167 57.5,122.5C 58.5,122.5 59.5,122.5 60.5,122.5C 58.2431,123.886 56.5764,123.219 55.5,120.5C 55.8555,119.478 56.5222,118.811 57.5,118.5 Z"/></g>
    <g><path style="opacity:1" fill="#818181" d="M 175.5,114.5 C 179.006,120.509 181.673,126.842 183.5,133.5C 183.5,134.5 183.5,135.5 183.5,136.5C 184.5,136.5 185.5,136.5 186.5,136.5C 185.432,137.434 184.099,137.768 182.5,137.5C 182.617,135.516 181.95,133.85 180.5,132.5C 179.849,134.847 178.516,136.514 176.5,137.5C 176.082,136.778 175.416,136.278 174.5,136C 177.21,133.676 179.21,131.342 180.5,129C 179.833,127.667 178.833,126.667 177.5,126C 178.833,125.333 178.833,124.667 177.5,124C 176.552,123.517 175.552,123.351 174.5,123.5C 174.19,120.287 174.523,117.287 175.5,114.5 Z"/></g>
    <g><path style="opacity:1" fill="#c2c2c2" d="M 79.5,117.5 C 79.1459,119.541 79.1459,121.374 79.5,123C 78.376,123.249 77.376,123.749 76.5,124.5C 77.9023,125.842 77.5689,126.676 75.5,127C 76.1094,128.948 76.776,130.782 77.5,132.5C 77.5,133.5 77.5,134.5 77.5,135.5C 76.8333,135.5 76.1667,135.5 75.5,135.5C 74.36,132.975 73.6933,130.308 73.5,127.5C 75.0116,123.799 77.0116,120.466 79.5,117.5 Z"/></g>
    <g><path style="opacity:1" fill="#9b9b9b" d="M 171.5,139.5 C 170.852,138.021 170.519,136.521 170.5,135C 166.857,133.324 163.19,132.824 159.5,133.5C 159.884,131.707 161.05,130.707 163,130.5C 167.185,130.597 170.685,132.097 173.5,135C 172.418,136.33 171.751,137.83 171.5,139.5 Z"/></g>
    <g><path style="opacity:1" fill="#616161" d="M 46.5,132.5 C 48.2132,133.635 48.8799,135.302 48.5,137.5C 42.8019,137.38 42.1352,135.714 46.5,132.5 Z"/></g>
    <g><path style="opacity:1" fill="#8a8a8a" d="M 56.5,131.5 C 61.1585,131.015 62.4919,132.848 60.5,137C 58.0638,137.436 56.0638,136.603 54.5,134.5C 55.1925,133.482 55.8592,132.482 56.5,131.5 Z"/></g>
    <g><path style="opacity:1" fill="#656565" d="M 73.5,127.5 C 73.6933,130.308 74.36,132.975 75.5,135.5C 74.7784,135.082 74.2784,134.416 74,133.5C 73.6174,134.056 73.1174,134.389 72.5,134.5C 71.6618,134.158 71.3284,133.492 71.5,132.5C 72.1667,130.833 72.8333,129.167 73.5,127.5 Z"/></g>
    <g><path style="opacity:1" fill="#b8b8b8" d="M 71.5,132.5 C 71.3284,133.492 71.6618,134.158 72.5,134.5C 72.5,135.5 72.5,136.5 72.5,137.5C 69.9783,137.872 67.9783,137.039 66.5,135C 67.6526,133.117 69.3193,132.284 71.5,132.5 Z"/></g>
    <g><path style="opacity:1" fill="#dcdcdc" d="M 106.5,135.5 C 100.547,134.443 94.5471,133.776 88.5,133.5C 86.8212,133.285 85.8212,133.952 85.5,135.5C 84.1667,135.5 83.5,136.167 83.5,137.5C 82.8485,136.909 82.1818,136.243 81.5,135.5C 80.5258,137.743 80.1924,140.076 80.5,142.5C 80.0826,139.841 79.0826,137.508 77.5,135.5C 77.5,134.5 77.5,133.5 77.5,132.5C 78.0478,133.775 79.3812,134.442 81.5,134.5C 82.5,134.333 83.5,134.167 84.5,134C 83.1667,133.333 83.1667,132.667 84.5,132C 89.2359,130.621 93.9026,130.621 98.5,132C 97.1118,132.889 97.2785,133.389 99,133.5C 102.186,132.067 104.686,132.734 106.5,135.5 Z"/></g>
    <g><path style="opacity:1" fill="#858585" d="M 88.5,133.5 C 87.7095,134.401 86.7095,135.068 85.5,135.5C 85.8212,133.952 86.8212,133.285 88.5,133.5 Z"/></g>
    <g><path style="opacity:1" fill="#afafaf" d="M 186.5,136.5 C 185.5,136.5 184.5,136.5 183.5,136.5C 183.5,135.5 183.5,134.5 183.5,133.5C 185.456,132.199 187.123,132.699 188.5,135C 187.956,135.717 187.289,136.217 186.5,136.5 Z"/></g>
    <g><path style="opacity:1" fill="#8c8c8c" d="M 194.5,136.5 C 192.651,132.506 193.985,131.006 198.5,132C 201.167,133.667 201.167,135.333 198.5,137C 196.934,137.765 195.601,137.598 194.5,136.5 Z"/></g>
    <g><path style="opacity:1" fill="#949494" d="M 207.5,131.5 C 212.404,133.33 212.57,135.33 208,137.5C 204.897,135.888 204.73,133.888 207.5,131.5 Z"/></g>
    <g><path style="opacity:1" fill="#909090" d="M 149.5,135.5 C 147.525,137.137 145.525,138.804 143.5,140.5C 143.44,136.515 145.44,134.848 149.5,135.5 Z"/></g>
    <g><path style="opacity:1" fill="#dbdbdb" d="M 194.5,136.5 C 194.5,135.5 194.5,134.5 194.5,133.5C 195.873,133.343 197.207,133.51 198.5,134C 197.692,135.706 196.359,136.539 194.5,136.5 Z"/></g>
    <g><path style="opacity:1" fill="#c1c1c1" d="M 106.5,135.5 C 111.168,134.839 113.168,136.839 112.5,141.5C 110.833,139.167 108.833,137.167 106.5,135.5 Z"/></g>
    <g><path style="opacity:1" fill="#919191" d="M 75.5,135.5 C 76.1667,135.5 76.8333,135.5 77.5,135.5C 79.0826,137.508 80.0826,139.841 80.5,142.5C 80.5912,144.698 79.9245,145.031 78.5,143.5C 78.1667,143.5 77.8333,143.5 77.5,143.5C 79.0134,140.284 78.3467,137.618 75.5,135.5 Z"/></g>
    <g><path style="opacity:1" fill="#9f9e9f" d="M 85.5,135.5 C 85.5662,137.083 85.2328,138.75 84.5,140.5C 83.596,139.791 83.2627,138.791 83.5,137.5C 83.5,136.167 84.1667,135.5 85.5,135.5 Z"/></g>
    <g><path style="opacity:1" fill="#898989" d="M 176.5,140.5 C 177.038,142.117 177.371,143.784 177.5,145.5C 174.207,144.68 173.874,143.013 176.5,140.5 Z"/></g>
    <g><path style="opacity:1" fill="#cfcfcf" d="M 186.5,147.5 C 185.167,147.5 183.833,147.5 182.5,147.5C 182.5,146.167 182.5,144.833 182.5,143.5C 183.708,142.218 185.042,142.218 186.5,143.5C 187.705,144.995 187.705,146.328 186.5,147.5 Z"/></g>
    <g><path style="opacity:1" fill="#bfbfbf" d="M 68.5,142.5 C 71.5904,141.83 73.257,142.997 73.5,146C 72.4474,149.748 70.6141,150.248 68,147.5C 67.6155,145.803 67.7822,144.137 68.5,142.5 Z"/></g>
    <g><path style="opacity:1" fill="#7f7f7f" d="M 56.5,143.5 C 59.5406,143.406 61.2072,144.906 61.5,148C 56.5967,150.209 54.93,148.709 56.5,143.5 Z"/></g>
    <g><path style="opacity:1" fill="#6e6e6e" d="M 177.5,145.5 C 178.397,146.598 179.23,146.598 180,145.5C 180.494,147.134 180.66,148.801 180.5,150.5C 179.11,149.101 178.11,147.434 177.5,145.5 Z"/></g>
    <g><path style="opacity:1" fill="#838383" d="M 198.5,148.5 C 197.399,149.598 196.066,149.765 194.5,149C 193.187,145.308 194.52,143.641 198.5,144C 199.801,145.616 199.801,147.116 198.5,148.5 Z"/></g>
    <g><path style="opacity:1" fill="#686868" d="M 207.5,143.5 C 210.057,145.404 209.89,147.404 207,149.5C 206.322,147.402 206.489,145.402 207.5,143.5 Z"/></g>
    <g><path style="opacity:1" fill="#5c5c5c" d="M 45.5,143.5 C 48.3058,144.707 48.9725,146.707 47.5,149.5C 45.9137,147.827 45.2471,145.827 45.5,143.5 Z"/></g>
    <g><path style="opacity:1" fill="#8a8a8a" d="M 182.5,143.5 C 182.5,144.833 182.5,146.167 182.5,147.5C 183.833,147.5 185.167,147.5 186.5,147.5C 185.365,149.088 184.031,149.421 182.5,148.5C 181.212,146.701 181.212,145.035 182.5,143.5 Z"/></g>
    <g><path style="opacity:1" fill="#d2d2d2" d="M 198.5,148.5 C 197.5,148.5 196.5,148.5 195.5,148.5C 195.5,147.5 195.5,146.5 195.5,145.5C 196.5,145.5 197.5,145.5 198.5,145.5C 198.5,146.5 198.5,147.5 198.5,148.5 Z"/></g>
    <g><path style="opacity:1" fill="#9a9a9a" d="M 115.5,148.5 C 115.5,148.833 115.5,149.167 115.5,149.5C 114.5,149.5 113.5,149.5 112.5,149.5C 113.105,147.519 114.105,147.185 115.5,148.5 Z"/></g>
    <g><path style="opacity:1" fill="#676767" d="M 115.5,149.5 C 115.833,149.5 116.167,149.5 116.5,149.5C 117.504,152.105 117.17,152.105 115.5,149.5 Z"/></g>
    <g><path style="opacity:1" fill="#454545" d="M 140.5,146.5 C 141.167,147.167 141.833,147.833 142.5,148.5C 140.983,148.511 139.816,149.177 139,150.5C 138.652,148.86 139.152,147.527 140.5,146.5 Z"/></g>
    <g><path style="opacity:1" fill="#838383" d="M 77.5,143.5 C 77.5,144.167 77.8333,144.5 78.5,144.5C 76.786,148.257 74.786,151.923 72.5,155.5C 71.9569,155.44 71.6236,155.107 71.5,154.5C 73.7172,151.932 74.8839,148.932 75,145.5C 75.4169,144.244 76.2502,143.577 77.5,143.5 Z"/></g>
    <g><path style="opacity:1" fill="#646464" d="M 105.5,153.5 C 105.631,152.761 105.464,152.094 105,151.5C 104.184,152.823 103.017,153.489 101.5,153.5C 102.401,151.273 104.067,150.273 106.5,150.5C 106.737,151.791 106.404,152.791 105.5,153.5 Z"/></g>
    <g><path style="opacity:1" fill="#8d8d8d" d="M 143.5,150.5 C 144.833,151.167 145.833,152.167 146.5,153.5C 144.5,153.5 143.5,152.5 143.5,150.5 Z"/></g>
    <g><path style="opacity:1" fill="#9d9d9d" d="M 159.5,156.5 C 159.5,157.167 159.833,157.5 160.5,157.5C 161.167,158.167 161.833,158.833 162.5,159.5C 161.448,159.649 160.448,159.483 159.5,159C 156.492,155.178 152.826,153.678 148.5,154.5C 149.072,152.881 149.405,151.215 149.5,149.5C 152.851,151.859 156.185,154.192 159.5,156.5 Z"/></g>
    <g><path style="opacity:1" fill="#999999" d="M 105.5,153.5 C 105.842,154.338 106.508,154.672 107.5,154.5C 107.265,155.097 106.765,155.43 106,155.5C 104.282,154.969 104.115,154.302 105.5,153.5 Z"/></g>
    <g><path style="opacity:0.875" fill="#575757" d="M 182.5,153.5 C 183.74,154.659 185.074,155.659 186.5,156.5C 185.178,156.33 184.011,156.663 183,157.5C 182.51,156.207 182.343,154.873 182.5,153.5 Z"/></g>
    <g><path style="opacity:1" fill="#7a7a7a" d="M 101.5,153.5 C 99.0932,157.2 95.7599,159.034 91.5,159C 91.5978,157.382 91.5978,155.882 91.5,154.5C 92.6883,155.364 93.8549,156.364 95,157.5C 97.0693,155.915 99.236,154.581 101.5,153.5 Z"/></g>
    <g><path style="opacity:0.812" fill="#585858" d="M 164.5,155.5 C 165.043,155.56 165.376,155.893 165.5,156.5C 164.452,157.548 163.452,158.548 162.5,159.5C 161.833,158.833 161.167,158.167 160.5,157.5C 161.222,157.082 161.722,156.416 162,155.5C 162.977,156.774 163.811,156.774 164.5,155.5 Z"/></g>
    <g><path style="opacity:1" fill="#9d9d9d" d="M 194.5,156.5 C 200.189,157.507 200.689,159.507 196,162.5C 193.901,160.709 193.401,158.709 194.5,156.5 Z"/></g>
    <g><path style="opacity:1" fill="#8a8a8a" d="M 57.5,156.5 C 61.619,157.368 62.119,159.034 59,161.5C 55.3724,160.453 54.8724,158.786 57.5,156.5 Z"/></g>
    <g><path style="opacity:1" fill="#b5b5b5" d="M 180.5,150.5 C 181.401,151.29 182.068,152.29 182.5,153.5C 182.343,154.873 182.51,156.207 183,157.5C 184.011,156.663 185.178,156.33 186.5,156.5C 189.179,159.492 188.513,161.825 184.5,163.5C 183.358,162.174 182.024,161.174 180.5,160.5C 180.5,157.167 180.5,153.833 180.5,150.5 Z"/></g>
    <g><path style="opacity:1" fill="#c1c1c1" d="M 72.5,155.5 C 74.2671,157.792 75.2671,160.458 75.5,163.5C 74.6851,162.571 73.8518,161.571 73,160.5C 70.3133,164.288 68.1467,163.788 66.5,159C 67.3185,157.681 68.3185,156.515 69.5,155.5C 70.6868,156.653 71.6868,156.653 72.5,155.5 Z"/></g>
    <g><path style="opacity:1" fill="#aaaaaa" d="M 129.5,162.5 C 127.784,162.629 126.117,162.962 124.5,163.5C 124.833,162.833 125.167,162.167 125.5,161.5C 127.375,159.922 128.708,160.255 129.5,162.5 Z"/></g>
    <g><path style="opacity:1" fill="#969696" d="M 136.5,161.5 C 134.872,166.475 132.539,166.809 129.5,162.5C 131.836,163.304 134.17,162.971 136.5,161.5 Z"/></g>
    <g><path style="opacity:1" fill="#7f7f7f" d="M 75.5,164.5 C 77.5,164.5 78.5,165.5 78.5,167.5C 77.1667,166.833 76.1667,165.833 75.5,164.5 Z"/></g>
    <g><path style="opacity:1" fill="#868686" d="M 119.5,160.5 C 119.5,161.5 119.5,162.5 119.5,163.5C 120.791,163.263 121.791,163.596 122.5,164.5C 121.458,165.791 120.292,165.791 119,164.5C 118.235,162.934 118.402,161.601 119.5,160.5 Z"/></g>
    <g><path style="opacity:1" fill="#989898" d="M 180.5,160.5 C 180.754,163.999 179.088,166.665 175.5,168.5C 176.661,165.51 178.328,162.843 180.5,160.5 Z"/></g>
    <g><path style="opacity:1" fill="#7b7a7b" d="M 78.5,167.5 C 79.609,167.557 80.609,167.89 81.5,168.5C 81.7135,170.144 81.3802,171.644 80.5,173C 81.5634,174.188 82.8967,174.688 84.5,174.5C 84.631,175.239 84.4643,175.906 84,176.5C 80.1246,176.218 78.9579,174.051 80.5,170C 79.6195,169.292 78.9528,168.458 78.5,167.5 Z"/></g>
    <g><path style="opacity:1" fill="#dbdbdb" d="M 81.5,168.5 C 82.7997,169.108 84.1331,169.775 85.5,170.5C 88.5466,168.843 89.8799,169.843 89.5,173.5C 91.5273,173.338 93.5273,173.505 95.5,174C 96.564,175.511 97.8974,175.677 99.5,174.5C 99.5,175.167 99.5,175.833 99.5,176.5C 98.8333,176.5 98.1667,176.5 97.5,176.5C 95.9557,176.297 94.6223,175.63 93.5,174.5C 92.5832,175.127 91.5832,175.461 90.5,175.5C 88.8516,174.223 87.0183,173.223 85,172.5C 84.5357,173.094 84.369,173.761 84.5,174.5C 82.8967,174.688 81.5634,174.188 80.5,173C 81.3802,171.644 81.7135,170.144 81.5,168.5 Z"/></g>
    <g><path style="opacity:1" fill="#5e5e5e" d="M 57.5,169.5 C 60.1567,170.479 60.8234,172.146 59.5,174.5C 57.7826,173.332 57.1159,171.665 57.5,169.5 Z"/></g>
    <g><path style="opacity:1" fill="#656565" d="M 195.5,169.5 C 198.057,171.404 197.89,173.404 195,175.5C 194.322,173.402 194.489,171.402 195.5,169.5 Z"/></g>
    <g><path style="opacity:1" fill="#6f6f6f" d="M 175.5,168.5 C 175.228,170.314 175.061,172.314 175,174.5C 172.688,177.102 170.855,176.768 169.5,173.5C 171.713,172.056 173.713,170.39 175.5,168.5 Z"/></g>
    <g><path style="opacity:1" fill="#a1a1a1" d="M 183.5,169.5 C 187.656,170.212 188.323,172.045 185.5,175C 184.552,175.483 183.552,175.649 182.5,175.5C 182.325,173.379 182.659,171.379 183.5,169.5 Z"/></g>
    <g><path style="opacity:1" fill="#adadad" d="M 69.5,168.5 C 73.7375,170.252 74.2375,172.585 71,175.5C 67.0647,173.867 66.5647,171.534 69.5,168.5 Z"/></g>
    <g><path style="opacity:1" fill="#797979" d="M 97.5,176.5 C 97.6309,177.376 97.2975,178.043 96.5,178.5C 94.556,177.199 92.556,176.199 90.5,175.5C 91.5832,175.461 92.5832,175.127 93.5,174.5C 94.6223,175.63 95.9557,176.297 97.5,176.5 Z"/></g>
    <g><path style="opacity:1" fill="#888888" d="M 104.5,173.5 C 102.589,174.075 100.922,175.075 99.5,176.5C 99.5,175.833 99.5,175.167 99.5,174.5C 101.459,173.129 103.625,172.129 106,171.5C 106.528,172.816 106.028,173.483 104.5,173.5 Z"/></g>
    <g><path style="opacity:1" fill="#5b5b5b" d="M 104.5,174.5 C 105.451,175.919 105.784,177.585 105.5,179.5C 104.661,178.359 103.994,177.026 103.5,175.5C 103.624,174.893 103.957,174.56 104.5,174.5 Z"/></g>
    <g><path style="opacity:1" fill="#a8a8a8" d="M 165.5,175.5 C 162.448,178.979 159.114,179.313 155.5,176.5C 158.93,175.811 162.264,175.478 165.5,175.5 Z"/></g>
    <g><path style="opacity:1" fill="#767676" d="M 153.5,174.5 C 152.883,174.389 152.383,174.056 152,173.5C 151.802,175.382 151.302,177.048 150.5,178.5C 150.373,176.085 150.207,173.751 150,171.5C 151.729,171.974 152.895,172.974 153.5,174.5 Z"/></g>
    <g><path style="opacity:1" fill="#939393" d="M 106.5,180.5 C 109.451,181.809 110.784,184.143 110.5,187.5C 113.195,187.681 115.528,188.681 117.5,190.5C 117.5,190.833 117.5,191.167 117.5,191.5C 114.562,190.372 111.562,189.205 108.5,188C 107.643,187.311 106.977,186.478 106.5,185.5C 107.315,183.413 107.315,181.747 106.5,180.5 Z"/></g>
    <g><path style="opacity:1" fill="#757575" d="M 157.5,183.5 C 165.443,185.22 165.443,186.886 157.5,188.5C 157.5,186.833 157.5,185.167 157.5,183.5 Z"/></g>
    <g><path style="opacity:1" fill="#747474" d="M 69.5,183.5 C 72.9103,183.384 74.2436,185.05 73.5,188.5C 69.065,189.078 67.7317,187.411 69.5,183.5 Z"/></g>
    <g><path style="opacity:1" fill="#888888" d="M 84.5,187.5 C 83.5326,186.194 82.1993,185.527 80.5,185.5C 80.8425,183.775 81.8425,183.275 83.5,184C 84.3366,185.011 84.67,186.178 84.5,187.5 Z"/></g>
    <g><path style="opacity:1" fill="#7c7c7c" d="M 149.5,179.5 C 150.794,184.554 148.794,187.554 143.5,188.5C 147.153,186.528 149.153,183.528 149.5,179.5 Z"/></g>
    <g><path style="opacity:1" fill="#696869" d="M 171.5,184.5 C 176.049,184.932 176.549,186.599 173,189.5C 171.01,188.303 170.51,186.637 171.5,184.5 Z"/></g>
    <g><path style="opacity:1" fill="#7e7e7e" d="M 183.5,183.5 C 185.252,183.418 186.252,184.251 186.5,186C 185.499,188.502 183.833,189.002 181.5,187.5C 182.18,186.14 182.847,184.807 183.5,183.5 Z"/></g>
    <g><path style="opacity:1" fill="#cfcfcf" d="M 80.5,185.5 C 82.1993,185.527 83.5326,186.194 84.5,187.5C 85.5573,188.206 85.2239,188.539 83.5,188.5C 82.1667,188.167 80.8333,187.833 79.5,187.5C 79.3284,186.508 79.6618,185.842 80.5,185.5 Z"/></g>
    <g><path style="opacity:1" fill="#808080" d="M 95.5,183.5 C 96.8366,184.315 97.8366,185.482 98.5,187C 96.5861,188.827 94.5861,188.827 92.5,187C 93.365,185.641 94.365,184.474 95.5,183.5 Z"/></g>
    <g><path style="opacity:1" fill="#6b6b6b" d="M 79.5,187.5 C 80.8333,187.833 82.1667,188.167 83.5,188.5C 81.8716,189.853 80.5383,189.519 79.5,187.5 Z"/></g>
    <g><path style="opacity:1" fill="#838383" d="M 139.5,188.5 C 140.833,188.5 142.167,188.5 143.5,188.5C 141.421,190.873 138.754,192.206 135.5,192.5C 135.369,191.761 135.536,191.094 136,190.5C 137.302,189.915 138.469,189.249 139.5,188.5 Z"/></g>
    <g><path style="opacity:1" fill="#c7c7c7" d="M 139.5,188.5 C 138.469,189.249 137.302,189.915 136,190.5C 135.536,191.094 135.369,191.761 135.5,192.5C 133.862,191.841 132.195,191.174 130.5,190.5C 126.712,192.256 122.712,192.922 118.5,192.5C 117.833,192.5 117.5,192.167 117.5,191.5C 117.5,191.167 117.5,190.833 117.5,190.5C 119.342,190.723 121.175,191.057 123,191.5C 125.306,190.551 127.639,189.551 130,188.5C 133.099,189.127 136.266,189.127 139.5,188.5 Z"/></g>
    <g><path style="opacity:1" fill="#6d6d6d" d="M 135.5,192.5 C 133.193,194.047 130.527,194.713 127.5,194.5C 124.186,194.657 121.186,193.991 118.5,192.5C 122.712,192.922 126.712,192.256 130.5,190.5C 132.195,191.174 133.862,191.841 135.5,192.5 Z"/></g>
    <g><path style="opacity:1" fill="#636363" d="M 107.5,197.5 C 110.91,197.384 112.244,199.05 111.5,202.5C 106.311,203.021 104.978,201.355 107.5,197.5 Z"/></g>
    <g><path style="opacity:1" fill="#626262" d="M 93.5,197.5 C 96.5,197.167 97.8333,198.5 97.5,201.5C 94.2043,201.55 92.871,200.217 93.5,197.5 Z"/></g>
    <g><path style="opacity:1" fill="#565656" d="M 118.5,199.5 C 120.716,199.275 122.383,200.108 123.5,202C 120.738,203.077 119.072,202.244 118.5,199.5 Z"/></g>
    <g><path style="opacity:1" fill="#6e6e6e" d="M 145.5,197.5 C 148.487,197.948 149.487,199.448 148.5,202C 146.866,202.494 145.199,202.66 143.5,202.5C 143.365,200.446 144.032,198.779 145.5,197.5 Z"/></g>
    <g><path style="opacity:1" fill="#4e4e4e" d="M 158.5,197.5 C 162.413,198.686 162.413,200.02 158.5,201.5C 157.374,200.192 157.374,198.858 158.5,197.5 Z"/></g>
    <g><path style="opacity:1" fill="#636363" d="M 132.5,198.5 C 137.049,198.932 137.549,200.599 134,203.5C 133.25,202.874 132.416,202.374 131.5,202C 132.337,200.989 132.67,199.822 132.5,198.5 Z"/></g>
</svg>
